
<!-- Generator: Adobe Illustrator 20.0.0, SVG Export Plug-In . SVG Version: 6.00 Build 0)  -->
<svg version="1.1" id="Layer_1" xmlns="http://www.w3.org/2000/svg" xmlns:xlink="http://www.w3.org/1999/xlink" x="0px" y="0px"
	 viewBox="0 0 300 300" style="enable-background:new 0 0 300 300;" xml:space="preserve">

    <style type="text/css">
	.st0{fill:transparent;stroke:#000000;stroke-miterlimit:10;}
 
		.name {
			stroke-dasharray:1500;
			stroke-dashoffset:0;
			-webkit-animation: dash 3s ease-in forwards;
			-o-animation: dash 3s ease-in forwards;
			-moz-animation: dash 3s ease-in forwards;
			animation: dash 3s ease-in forwards;
        transition-delay: 73s;
		}

        @keyframes empiezaFirma{
            from{
                opacity:0;
            }
            to{
                opacity:1;
            }
        }
        
        @-webkit-keyframes dash{
            from{
                stroke-dashoffset:1500;
            }
            to{
                stroke-dashoffset:800;
            }
        }
    </style>
    

	<g>
		<path id="pepe" class="name st0" d="M82.164,189.575c0.66,1.369,1.387,2.091,2.746,2.747c0.563,0.272,1.37,0.293,1.818-0.235
			c5.191-6.118,6.885-14.682,8.756-22.282c2.483-10.086,4.205-20.343,5.596-30.631c2.717-20.093,4.54-40.319,5.849-60.549
			c0.111-1.712-2.506-2.003-2.946-0.399c-5.236,19.06-6.273,38.814-5.8,58.492c0.209,8.7,0.344,17.543,1.689,26.159
			c0.97,6.216,2.606,15.022,9.22,17.774c13.448,5.595,26.12-16.611,31.037-25.79c8.48-15.831,15.929-32.956,17.426-51.025
			c0.144-1.737-2.468-1.961-2.946-0.399c-3.258,10.63-3.805,25.107,2.932,34.641c6.717,9.507,17.647,3.673,24.61-2.112
			c1.301-1.081-0.413-3.318-1.818-2.356c-21.483,14.707-42.98,29.423-65.237,42.947c-19.234,11.688-39.561,22.379-54.569,39.579
			c-1.268,1.453,0.675,3.418,2.121,2.121c20.501-18.385,43.739-33.224,67.671-46.707c11.706-6.595,23.577-12.889,35.438-19.198
			c5.924-3.151,11.847-6.304,17.746-9.5c2.733-1.481,7.263-3.475,5.213-7.216c-0.928-1.694-3.519-0.182-2.59,1.514
			c0.697,1.272-29.791,16.818-32.713,18.378c-11.071,5.913-22.107,11.898-32.958,18.208c-21.198,12.327-41.641,26-59.928,42.399
			c0.707,0.707,1.414,1.414,2.121,2.121c15.26-17.489,36.072-28.175,55.589-40.101c21.68-13.248,42.651-27.607,63.61-41.955
			c-0.606-0.785-1.212-1.571-1.818-2.356c-3.714,3.086-8.35,6.861-13.562,6.361c-5.312-0.509-7.683-5.083-9.123-9.63
			c-2.737-8.642-2.484-17.723,0.157-26.342c-0.982-0.133-1.964-0.266-2.946-0.399c-1.324,15.983-7.636,30.868-14.73,45.073
			c-3.269,6.545-6.857,13.022-11.515,18.695c-4.813,5.863-15.989,16.839-22.086,6.422c-3.763-6.429-4.031-15.107-4.452-22.337
			c-0.474-8.137-0.722-16.305-0.7-24.456c0.045-16.268,1.482-32.482,5.802-48.209c-0.982-0.133-1.964-0.266-2.946-0.399
			c-1.219,18.843-2.912,37.67-5.304,56.402c-1.219,9.545-2.693,19.067-4.754,28.469c-1.878,8.568-3.456,19.624-9.264,26.47
			c0.606-0.078,1.212-0.156,1.818-0.235c-0.557-0.557-1.113-1.114-1.67-1.671C83.916,186.322,81.329,187.842,82.164,189.575
			L82.164,189.575z"/>
	</g>


</svg>
