<?xml version="1.0" encoding="utf-8"?>
<!-- Generator: Adobe Illustrator 20.0.0, SVG Export Plug-In . SVG Version: 6.00 Build 0)  -->
<svg version="1.1" id="Layer_1" xmlns="http://www.w3.org/2000/svg" xmlns:xlink="http://www.w3.org/1999/xlink" x="0px" y="0px"
	 viewBox="0 0 307.7 308.3" style="enable-background:new 0 0 307.7 308.3;" xml:space="preserve">
<style type="text/css">
	.st0{fill:none;stroke:#222222;stroke-miterlimit:10;}
		.name {
            z-index:10;
			stroke-dasharray:2548;
			stroke-dashoffset:0;
			-webkit-animation: dash 4s ease-in forwards;
			-o-animation: dash 4s ease-in forwards;
			-moz-animation: dash 4s ease-in forwards;
			animation: dash 4s ease-in forwards;
		}
        
        @-webkit-keyframes dash{
            from{
                stroke-dashoffset:2500;
            }
            to{
                stroke-dashoffset:1235;
            }
        }
</style>
<g>
	<path id="pepe" class="name st0" d="M91,207c1.3,2.5,2.7,3.8,5.4,5c1.1,0.5,2.7,0.5,3.6-0.4c10.2-11.1,13.5-26.6,17.1-40.4
		c4.9-18.3,8.2-36.9,10.9-55.5c5.3-36.4,8.9-73,11.4-109.7c0.2-3.1-4.9-3.6-5.8-0.7c-10.2,34.5-12.3,70.3-11.3,106
		c0.4,15.8,0.7,31.8,3.3,47.4c1.9,11.3,5.1,27.2,18,32.2c26.3,10.1,51.1-30.1,60.7-46.7c16.6-28.7,31.2-59.7,34.1-92.4
		c0.3-3.1-4.8-3.6-5.8-0.7c-6.4,19.3-7.4,45.5,5.7,62.8c13.1,17.2,34.5,6.7,48.2-3.8c2.5-2-0.8-6-3.6-4.3
		c-42,26.6-84.1,53.3-127.6,77.8C117.8,204.6,78,224,48.6,255.2c-2.5,2.6,1.3,6.2,4.2,3.8c40.1-33.3,85.6-60.2,132.4-84.6
		c22.9-11.9,46.1-23.4,69.3-34.8c11.6-5.7,23.2-11.4,34.7-17.2c5.3-2.7,14.2-6.3,10.2-13.1c-1.8-3.1-6.9-0.3-5.1,2.7
		c1.4,2.3-58.3,30.5-64,33.3c-21.7,10.7-43.3,21.6-64.5,33c-41.5,22.3-81.5,47.1-117.3,76.8c1.4,1.3,2.8,2.6,4.2,3.8
		c29.9-31.7,70.6-51,108.8-72.7c42.4-24,83.5-50,124.5-76c-1.2-1.4-2.4-2.8-3.6-4.3c-7.3,5.6-16.3,12.4-26.5,11.5
		c-10.4-0.9-15-9.2-17.9-17.4c-5.4-15.7-4.9-32.1,0.3-47.7c-1.9-0.2-3.8-0.5-5.8-0.7c-2.6,29-14.9,55.9-28.8,81.7
		c-6.4,11.9-13.4,23.6-22.5,33.9c-9.4,10.6-31.3,30.5-43.2,11.6c-7.4-11.6-7.9-27.4-8.7-40.5c-0.9-14.7-1.4-29.5-1.4-44.3
		c0.1-29.5,2.9-58.9,11.4-87.3c-1.9-0.2-3.8-0.5-5.8-0.7c-2.4,34.1-5.7,68.2-10.4,102.2c-2.4,17.3-5.3,34.5-9.3,51.6
		c-3.7,15.5-6.8,35.6-18.1,48c1.2-0.1,2.4-0.3,3.6-0.4c-1.1-1-2.2-2-3.3-3C94.4,201.1,89.3,203.9,91,207z"/>
</g>
</svg>
