<?xml version="1.0" encoding="utf-8"?>
<!-- Generator: Adobe Illustrator 20.0.0, SVG Export Plug-In . SVG Version: 6.00 Build 0)  -->
<svg version="1.1" id="Layer_1" xmlns="http://www.w3.org/2000/svg" xmlns:xlink="http://www.w3.org/1999/xlink" x="0px" y="0px"
	 viewBox="0 0 300 30" style="enable-background:new 0 0 300 30;" xml:space="preserve">
<defs>
	<style type="text/css">
		.name {
			stroke-dasharray:2000;
			stroke-dashoffset:0;
			-webkit-animation: dash 4s linear forwards;
			-o-animation: dash 4s linear forwards;
			-moz-animation: dash 4s linear forwards;
			animation: dash 4s linear forwards;
		}

@-webkit-keyframes dash{
	from{
		stroke-dashoffset:200;
	}
	to{
		stroke-dashoffset:0;
	}
}

</style>
    </defs>

<g>
	<path class="name" d="M9.628,11.253c-0.178-0.776-0.314-1.205-0.615-1.592C8.658,9.112,8.221,8.938,6.706,8.938H5.217
		c-0.642,0-0.696,0.053-0.696,0.642v4.577h2.048c1.871,0,1.98-0.188,2.24-1.458h0.601v3.854H8.795
		c-0.246-1.365-0.355-1.579-2.226-1.579H4.521v3.412c0,1.739,0.177,1.86,2.048,1.994v0.562h-5.75V20.38
		c1.625-0.121,1.803-0.255,1.803-1.994v-7.641c0-1.726-0.178-1.833-1.748-1.94V8.216h9.15c0.027,0.723,0.123,1.967,0.219,2.944
		L9.628,11.253z"/>
	<path class="name" d="M19.797,20.941V20.38c1.27-0.174,1.447-0.349,1.174-1.138c-0.287-0.776-0.655-1.753-1.092-2.877h-4.384
		c-0.342,0.896-0.615,1.659-0.874,2.436c-0.437,1.19-0.273,1.418,1.27,1.579v0.562h-4.507V20.38
		c1.325-0.201,1.611-0.335,2.335-2.074l4.288-10.21l0.71-0.174c1.311,3.466,2.622,6.945,3.974,10.384
		c0.656,1.726,0.942,1.94,2.267,2.074v0.562H19.797z M17.79,10.611h-0.041c-0.655,1.62-1.297,3.292-1.912,4.871h3.742L17.79,10.611z
		"/>
	<path class="name" d="M38.937,17.583c-0.273,0.937-0.833,2.476-1.188,3.104c-0.601,0.134-2.404,0.562-3.919,0.562
		c-5.271,0-7.621-3.412-7.621-6.503c0-4.122,3.4-6.825,8.139-6.825c1.748,0,3.223,0.468,3.797,0.562
		c0.164,1.111,0.314,1.954,0.437,3.064l-0.615,0.134c-0.56-2.168-1.925-3.024-4.151-3.024c-3.482,0-5.34,2.757-5.34,5.674
		c0,3.693,2.308,6.155,5.517,6.155c2.117,0,3.278-1.11,4.356-3.131L38.937,17.583z"/>
	<path class="name" d="M54.253,8.805c-1.188,0.067-1.707,0.361-1.789,1.164c-0.055,0.549-0.123,1.338-0.123,3.104v1.539
		c0,2.314-0.382,4.015-1.57,5.219c-0.956,0.95-2.349,1.378-3.756,1.378c-1.256,0-2.444-0.268-3.359-0.95
		c-1.256-0.909-1.857-2.395-1.857-4.75v-4.67c0-1.807-0.177-1.9-1.789-2.034V8.216h5.476v0.589
		c-1.598,0.093-1.775,0.214-1.775,2.034v4.269c0,3.225,1.379,4.991,3.865,4.991c2.896,0,3.892-2.275,3.892-5.526v-1.499
		c0-1.766-0.055-2.542-0.164-3.158c-0.109-0.75-0.574-1.017-1.98-1.11V8.216h4.93V8.805z"/>
	<path class="name" d="M69.624,8.805c-1.134,0.053-1.625,0.281-1.721,1.177c-0.068,0.629-0.123,1.512-0.123,3.332v7.829h-0.656l-8.972-10.197
		h-0.027l-0.014,4.777c0,1.806,0.082,2.729,0.137,3.292c0.096,1.017,0.56,1.258,1.966,1.365v0.562h-4.889V20.38
		c1.175-0.081,1.694-0.335,1.789-1.312c0.082-0.616,0.164-1.539,0.164-3.345v-4.202c0-1.432-0.068-1.539-0.437-2.007
		c-0.423-0.482-0.86-0.642-1.816-0.709V8.216h3.141l8.699,9.661h0.055v-4.563c0-1.82-0.082-2.703-0.137-3.265
		c-0.096-0.923-0.573-1.177-2.035-1.244V8.216h4.875V8.805z"/>
	<path class="name" d="M76.991,8.216c2.608,0,4.603,0.522,5.873,1.672c1.01,0.95,1.748,2.382,1.748,4.215c0,2.315-0.97,4.068-2.567,5.219
		c-1.571,1.111-3.66,1.619-6.187,1.619h-5.081V20.38c1.748-0.121,1.926-0.241,1.926-1.914v-7.761c0-1.686-0.178-1.766-1.748-1.887
		V8.216H76.991z M74.615,18.292c0,1.553,0.696,1.914,2.199,1.914c3.81,0,5.64-2.717,5.64-5.794c0-2.021-0.806-3.68-2.308-4.604
		c-0.942-0.616-2.171-0.91-3.633-0.91c-0.915,0-1.42,0.134-1.639,0.268c-0.191,0.134-0.259,0.375-0.259,1.138V18.292z"/>
	<path class="name" d="M93.591,7.921c3.591,0,6.842,2.569,6.842,6.49c0,4.228-3.237,6.837-7.115,6.837c-3.837,0-6.896-2.77-6.896-6.543
		c0-3.546,2.718-6.785,7.156-6.785H93.591z M93.14,8.657c-2.294,0-4.479,1.833-4.479,5.54c0,3.6,2.171,6.316,5.107,6.316
		c2.294,0,4.397-1.793,4.397-5.58c0-4.108-2.322-6.276-5.012-6.276H93.14z"/>
	<path class="name" d="M121.782,8.805c-1.134,0.053-1.625,0.281-1.721,1.177c-0.068,0.629-0.123,1.512-0.123,3.332v7.829h-0.656l-8.972-10.197
		h-0.027l-0.014,4.777c0,1.806,0.082,2.729,0.137,3.292c0.095,1.017,0.56,1.258,1.966,1.365v0.562h-4.889V20.38
		c1.175-0.081,1.694-0.335,1.789-1.312c0.082-0.616,0.164-1.539,0.164-3.345v-4.202c0-1.432-0.068-1.539-0.437-2.007
		c-0.423-0.482-0.86-0.642-1.816-0.709V8.216h3.141l8.699,9.661h0.055v-4.563c0-1.82-0.082-2.703-0.137-3.265
		c-0.096-0.923-0.574-1.177-2.035-1.244V8.216h4.875V8.805z"/>
	<path class="name" d="M123.031,20.941V20.38c1.666-0.121,1.844-0.241,1.844-1.928v-7.721c0-1.7-0.178-1.82-1.844-1.927V8.216h5.572v0.589
		c-1.652,0.107-1.83,0.227-1.83,1.927v7.721c0,1.687,0.177,1.807,1.83,1.928v0.562H123.031z"/>
	<path class="name" d="M142.994,17.583c-0.273,0.937-0.833,2.476-1.188,3.104c-0.601,0.134-2.404,0.562-3.919,0.562
		c-5.271,0-7.621-3.412-7.621-6.503c0-4.122,3.4-6.825,8.139-6.825c1.748,0,3.223,0.468,3.797,0.562
		c0.164,1.111,0.314,1.954,0.437,3.064l-0.615,0.134c-0.56-2.168-1.925-3.024-4.151-3.024c-3.482,0-5.34,2.757-5.34,5.674
		c0,3.693,2.308,6.155,5.517,6.155c2.117,0,3.278-1.11,4.356-3.131L142.994,17.583z"/>
	<path class="name" d="M151.481,7.921c3.592,0,6.842,2.569,6.842,6.49c0,4.228-3.236,6.837-7.114,6.837c-3.838,0-6.897-2.77-6.897-6.543
		c0-3.546,2.718-6.785,7.156-6.785H151.481z M151.031,8.657c-2.294,0-4.479,1.833-4.479,5.54c0,3.6,2.171,6.316,5.107,6.316
		c2.294,0,4.397-1.793,4.397-5.58c0-4.108-2.321-6.276-5.012-6.276H151.031z"/>
	<path class="name" d="M170.103,17.783c-0.137,0.669-0.561,2.557-0.766,3.158h-9.423V20.38c1.748-0.121,1.926-0.255,1.926-1.968v-7.681
		c0-1.7-0.137-1.82-1.83-1.927V8.216h5.531v0.589c-1.611,0.107-1.803,0.214-1.803,1.927v7.614c0,1.07,0.096,1.445,0.478,1.646
		c0.396,0.215,1.093,0.255,1.898,0.255c1.079,0,1.803-0.121,2.268-0.629c0.382-0.375,0.765-1.018,1.105-1.954L170.103,17.783z"/>
	<path class="name" d="M179.151,20.941V20.38c1.27-0.174,1.447-0.349,1.175-1.138c-0.287-0.776-0.656-1.753-1.093-2.877h-4.384
		c-0.342,0.896-0.614,1.659-0.874,2.436c-0.438,1.19-0.273,1.418,1.27,1.579v0.562h-4.506V20.38
		c1.324-0.201,1.611-0.335,2.335-2.074l4.288-10.21l0.71-0.174c1.312,3.466,2.622,6.945,3.975,10.384
		c0.655,1.726,0.941,1.94,2.267,2.074v0.562H179.151z M177.144,10.611h-0.041c-0.655,1.62-1.297,3.292-1.912,4.871h3.742
		L177.144,10.611z M180.763,6.315l-3.865,1.231l-0.231-0.495c1.092-0.696,2.267-1.445,3.264-2.061
		c0.26,0.04,0.806,0.816,0.874,1.151L180.763,6.315z"/>
	<path class="name" d="M192.569,11.28c-0.355-1.258-0.983-2.677-2.704-2.677c-1.529,0-2.253,1.058-2.253,2.128c0,1.378,0.942,2.047,2.608,2.837
		c1.734,0.83,3.537,1.753,3.537,3.907c0,2.102-1.83,3.773-4.616,3.773c-0.847,0-1.529-0.146-2.049-0.32
		c-0.519-0.161-0.806-0.321-1.011-0.415c-0.136-0.389-0.437-2.168-0.56-3.118l0.614-0.174c0.342,1.244,1.339,3.292,3.428,3.292
		c1.489,0,2.363-0.896,2.363-2.302c0-1.419-1.093-2.088-2.649-2.891c-1.421-0.696-3.373-1.672-3.373-3.827
		c0-1.954,1.611-3.573,4.274-3.573c0.97,0,1.885,0.228,2.649,0.468c0.082,0.696,0.177,1.499,0.354,2.783L192.569,11.28z"/>
	<path class="name" d="M208.021,7.921c3.592,0,6.842,2.569,6.842,6.49c0,4.228-3.236,6.837-7.115,6.837c-3.838,0-6.896-2.77-6.896-6.543
		c0-3.546,2.718-6.785,7.156-6.785H208.021z M207.57,8.657c-2.294,0-4.479,1.833-4.479,5.54c0,3.6,2.172,6.316,5.108,6.316
		c2.294,0,4.397-1.793,4.397-5.58c0-4.108-2.322-6.276-5.013-6.276H207.57z"/>
	<path class="name" d="M228.731,21.115c-0.246,0-0.478-0.013-0.724-0.04c-1.652-0.08-2.499-0.508-3.441-1.793c-0.696-0.95-1.366-2.141-1.98-3.078
		c-0.368-0.562-0.724-0.802-1.775-0.802h-0.573v3.05c0,1.646,0.191,1.794,1.83,1.928v0.562h-5.531V20.38
		c1.652-0.134,1.844-0.281,1.844-1.928v-7.761c0-1.673-0.178-1.78-1.762-1.887V8.216h5.23c1.543,0,2.54,0.174,3.318,0.682
		c0.833,0.509,1.353,1.378,1.353,2.569c0,1.7-1.12,2.717-2.581,3.319c0.354,0.643,1.188,1.927,1.803,2.823
		c0.737,1.03,1.174,1.579,1.652,2.061c0.519,0.576,0.97,0.79,1.434,0.897L228.731,21.115z M221.152,14.746
		c1.024,0,1.707-0.161,2.226-0.562c0.778-0.589,1.093-1.352,1.093-2.409c0-2.101-1.406-2.877-2.923-2.877
		c-0.614,0-0.942,0.081-1.092,0.188c-0.137,0.107-0.219,0.334-0.219,0.843v4.817H221.152z"/>
	<path class="name" d="M239.542,17.783c-0.137,0.669-0.561,2.557-0.766,3.158h-9.423V20.38c1.748-0.121,1.926-0.255,1.926-1.968v-7.681
		c0-1.7-0.137-1.82-1.83-1.927V8.216h5.531v0.589c-1.611,0.107-1.803,0.214-1.803,1.927v7.614c0,1.07,0.096,1.445,0.478,1.646
		c0.396,0.215,1.093,0.255,1.898,0.255c1.079,0,1.803-0.121,2.268-0.629c0.382-0.375,0.765-1.018,1.105-1.954L239.542,17.783z"/>
	<path class="name" d="M248.591,20.941V20.38c1.27-0.174,1.447-0.349,1.175-1.138c-0.287-0.776-0.656-1.753-1.093-2.877h-4.384
		c-0.342,0.896-0.614,1.659-0.874,2.436c-0.438,1.19-0.273,1.418,1.27,1.579v0.562h-4.506V20.38
		c1.324-0.201,1.611-0.335,2.335-2.074l4.288-10.21l0.71-0.174c1.312,3.466,2.622,6.945,3.975,10.384
		c0.655,1.726,0.941,1.94,2.267,2.074v0.562H248.591z M246.583,10.611h-0.041c-0.655,1.62-1.297,3.292-1.912,4.871h3.742
		L246.583,10.611z"/>
	<path class="name" d="M269.124,8.805c-1.134,0.053-1.625,0.281-1.721,1.177c-0.068,0.629-0.123,1.512-0.123,3.332v7.829h-0.655l-8.973-10.197
		h-0.027l-0.014,4.777c0,1.806,0.082,2.729,0.137,3.292c0.096,1.017,0.56,1.258,1.967,1.365v0.562h-4.89V20.38
		c1.175-0.081,1.693-0.335,1.789-1.312c0.082-0.616,0.164-1.539,0.164-3.345v-4.202c0-1.432-0.068-1.539-0.438-2.007
		c-0.423-0.482-0.86-0.642-1.815-0.709V8.216h3.141l8.699,9.661h0.055v-4.563c0-1.82-0.082-2.703-0.137-3.265
		c-0.096-0.923-0.573-1.177-2.035-1.244V8.216h4.876V8.805z"/>
	<path class="name" d="M276.491,8.216c2.608,0,4.603,0.522,5.872,1.672c1.011,0.95,1.748,2.382,1.748,4.215c0,2.315-0.969,4.068-2.567,5.219
		c-1.57,1.111-3.659,1.619-6.187,1.619h-5.08V20.38c1.748-0.121,1.926-0.241,1.926-1.914v-7.761c0-1.686-0.178-1.766-1.748-1.887
		V8.216H276.491z M274.115,18.292c0,1.553,0.696,1.914,2.198,1.914c3.811,0,5.641-2.717,5.641-5.794c0-2.021-0.806-3.68-2.308-4.604
		c-0.942-0.616-2.172-0.91-3.633-0.91c-0.915,0-1.421,0.134-1.639,0.268c-0.191,0.134-0.26,0.375-0.26,1.138V18.292z"/>
	<path class="name" d="M293.091,7.921c3.592,0,6.842,2.569,6.842,6.49c0,4.228-3.236,6.837-7.115,6.837c-3.838,0-6.896-2.77-6.896-6.543
		c0-3.546,2.718-6.785,7.156-6.785H293.091z M292.64,8.657c-2.294,0-4.479,1.833-4.479,5.54c0,3.6,2.172,6.316,5.108,6.316
		c2.294,0,4.397-1.793,4.397-5.58c0-4.108-2.322-6.276-5.013-6.276H292.64z"/>
</g>
</svg>
