<?xml version="1.0" encoding="utf-8"?>
<!-- Generator: Adobe Illustrator 20.0.0, SVG Export Plug-In . SVG Version: 6.00 Build 0)  -->
<svg version="1.1" id="Layer_1" xmlns="http://www.w3.org/2000/svg" xmlns:xlink="http://www.w3.org/1999/xlink" x="0px" y="0px"
	 viewBox="0 0 300 300" style="enable-background:new 0 0 300 300;" xml:space="preserve">
<g>
	<g>
		<path d="M56.066,200.095c8.269-6.593,13.306-15.817,17.235-25.47c4.706-11.561,8.341-23.592,11.028-35.777
			c2.621-11.888,4.306-23.989,5.037-36.14c0.69-11.471,1.661-24.209-2.842-35.057c-0.473-1.139-2.025-1.563-2.742-0.358
			c-3.788,6.369-3.831,13.998-4.247,21.201c-0.518,8.963-0.665,17.946-0.44,26.921c0.403,16.058,0.564,34.245,7.133,49.203
			c2.169,4.938,5.679,10.147,11.138,11.737c6.492,1.89,12.417-2.363,17.271-6.148c10.986-8.567,20.055-19.532,26.607-31.816
			c7.564-14.182,11.669-29.946,11.962-46.012c-0.982,0.133-1.964,0.266-2.946,0.399c2.154,12.106,9.289,23.57,20.513,29.169
			c10.854,5.415,24.204,4.609,33.989-2.654c1.338-0.993,0.586-3.112-1.156-2.742c-14.568,3.099-28.39,10.308-42.047,16.075
			c-14.407,6.084-28.849,12.095-43.195,18.321c-26.93,11.688-54.289,24.127-76.992,43.077c-1.298,1.083,0.414,3.322,1.818,2.356
			c59.956-41.285,128.917-65.866,195.45-94.15c1.771-0.753,0.244-3.338-1.514-2.59c-66.532,28.284-135.494,52.865-195.45,94.15
			c0.606,0.785,1.212,1.571,1.818,2.356c22.478-18.762,49.727-31.039,76.385-42.608c13.463-5.843,27.013-11.487,40.533-17.197
			c14.302-6.039,28.74-13.652,43.993-16.897c-0.385-0.914-0.771-1.828-1.156-2.742c-9.33,6.925-22.097,7.641-32.254,1.971
			c-9.88-5.516-15.897-15.763-17.841-26.692c-0.304-1.707-2.916-1.241-2.946,0.399c-0.298,16.32-4.656,32.308-12.667,46.536
			c-3.989,7.085-8.825,13.681-14.429,19.575c-5.286,5.559-12.685,13.648-20.48,15.06c-10.211,1.851-14.521-10.867-16.504-18.616
			c-2.405-9.399-3.039-19.291-3.596-28.947c-0.554-9.603-0.681-19.23-0.382-28.845c0.282-9.052-0.532-20.339,4.224-28.335
			c-0.914-0.119-1.828-0.239-2.742-0.358c4.291,10.337,3.397,22.38,2.786,33.334c-0.68,12.2-2.35,24.335-4.981,36.268
			c-2.459,11.152-5.736,22.137-9.849,32.793c-3.95,10.236-8.903,20.162-17.643,27.131C52.436,199.177,54.571,201.288,56.066,200.095
			L56.066,200.095z"/>
	</g>
</g>
<g>
	<g>
		<path d="M49.573,206.588c1.012-1.841,0.494-3.56-1.504-4.451c-3.129-1.395-7.201,0.593-9.435,2.73
			c-3.492,3.339-4.972,8.407-6.078,12.96c-1.109,4.567-2.245,9.983-0.355,14.507c3.029,7.25,11.023,6.885,16.364,2.368
			c6.924-5.854,7.8-15.65,2.968-23.067c-1.05-1.612-3.648-0.11-2.59,1.514c2.993,4.593,3.8,10.284,1.01,15.219
			c-2.583,4.568-10.169,10.359-14.378,4.009c-2.703-4.078-1.053-10.247,0.088-14.634c0.687-2.641,1.482-5.444,2.854-7.821
			c0.858-1.659,2.06-3,3.608-4.024c1.484-1.029,3.103-1.304,4.858-0.824C46.052,206.767,48.642,208.283,49.573,206.588
			L49.573,206.588z"/>
	</g>
</g>
<g>
	<g>
		<path d="M63.088,206.371c-2.307,0.667-2.105,3.831-2.448,5.786c-0.646,3.673-1.291,7.346-1.937,11.019
			c-0.332,1.888,2.559,2.699,2.893,0.798c0.442-2.513,0.884-5.026,1.325-7.539c0.093-0.527,1.061-7.198,0.965-7.171
			C65.736,208.728,64.949,205.833,63.088,206.371L63.088,206.371z"/>
	</g>
</g>
<g>
	<g>
		<path d="M57.157,216.445c3.791-3.829,7.998-6.975,12.733-9.538c-0.734-0.565-1.469-1.129-2.203-1.694
			c-1.865,6.573-2.735,13.238-2.618,20.07c0.014,0.797,0.676,1.519,1.5,1.5c1.974-0.045,3.545-0.504,5.196-1.604
			c1.599-1.066,0.099-3.665-1.514-2.59c-1.067,0.892-2.295,1.29-3.682,1.195c0.5,0.5,1,1,1.5,1.5
			c-0.112-6.564,0.72-12.957,2.511-19.272c0.367-1.294-1.074-2.305-2.203-1.694c-4.954,2.682-9.379,6.006-13.34,10.007
			C53.676,215.697,55.796,217.819,57.157,216.445L57.157,216.445z"/>
	</g>
</g>
<g>
	<g>
		<path d="M73.924,199.397c-1.327,5.478-2.052,11.053-1.888,16.699c0.083,2.86,0.014,6.974,2.403,9.06
			c5.979,5.219,10.632-7.335,11.83-11.092c-0.964-0.266-1.929-0.532-2.893-0.798c-0.551,3.136-1.033,6.685,1.39,9.188
			c2.064,2.133,4.994,2.056,7.374,0.454c4.595-3.093,6.779-12.817,0.746-15.72c-5.941-2.859-8.325,7.446-7.078,11.395
			c2.778,8.798,13.492-3.337,16.214-5.733c-0.785-0.101-1.571-0.202-2.356-0.304c1.341,2.396,3.188,5.078,6.302,4.821
			c3.72-0.308,7.431-4.959,9.496-7.555c-0.836-0.221-1.671-0.441-2.507-0.662c0.555,2.195,0.891,4.355,1.014,6.616
			c0.105,1.92,3.105,1.932,3,0c-0.14-2.557-0.494-4.932-1.122-7.413c-0.255-1.009-1.792-1.561-2.507-0.662
			c-2.478,3.115-7.614,9.543-11.087,3.342c-0.497-0.888-1.65-0.925-2.356-0.304c-1.822,1.603-3.848,4.098-5.972,5.255
			c-0.498,0.438-0.995,0.876-1.493,1.314c-3.537,0.436-4.789-0.728-3.755-3.492c0.709-3.384,4.829-4.142,4.861,0.387
			c-0.066,2.002-0.76,3.785-2.08,5.347c-4.889-0.09-6.62-1.916-5.192-5.476c0.33-1.879-2.297-2.666-2.893-0.798
			c-0.645,2.025-1.181,4.537-2.454,6.26c-0.829,1.12-3.419,3.273-4.917,2.823c-0.999-0.3-0.895-4.695-0.928-5.34
			c-0.286-5.677,0.404-11.302,1.74-16.815C77.271,198.319,74.379,197.519,73.924,199.397L73.924,199.397z"/>
	</g>
</g>
<g>
	<g>
		<path d="M131.21,189.873c0.154,3.925,0.148,7.845-0.126,11.765c-0.156,2.233-0.017,5.418-0.813,7.4
			c-0.493,1.228,0.356,2.36-1.33,1.561c-1.052-0.498-1.077-2.051-2.545-2.6c-1.52-0.568-3.345-0.093-4.627,0.796
			c-4.492,3.113-6.929,16.419,1.905,14.03c2.242-0.606,3.429-2.75,5.653-3.172c2.086-0.395,4.106,0.978,6.355,1.003
			c4.388,0.05,9.401-2.477,11.984-6.03c1.873-2.577,2.535-6.583-0.181-8.921c-3.218-2.77-6.978-0.119-9.423,2.266
			c-1.384,1.351,0.738,3.471,2.121,2.121c1.825-2.465,3.189-1.186,4.089,3.839c-0.707,0.547-1.413,1.094-2.12,1.642
			c-2.608,1.653-5.229,2.359-8.22,1.632c-1.711-0.416-3.193-1.569-4.988-1.235c-2.502,0.466-6.934,7.24-8.391,1.029
			c-0.971-4.138,4.152-5.093,6.435-3.613c2.254,1.46,4.087,2.791,5.622-0.659c1.103-2.48,1.071-6.45,1.315-9.134
			c0.415-4.572,0.464-9.137,0.284-13.721C134.135,187.948,131.134,187.939,131.21,189.873L131.21,189.873z"/>
	</g>
</g>
<g>
	<g>
		<path d="M155.619,214.299c-0.152-0.305-0.916,0.887-1.109,1.121c-0.432,0.522-0.882,1.032-1.372,1.501
			c-0.985,0.943-2.051,1.557-3.411,1.747c-1.904,0.267-1.094,3.158,0.798,2.893c2.182-0.306,3.988-1.654,5.439-3.248
			c1.355-1.488,3.302-3.405,2.246-5.528C157.349,211.056,154.761,212.574,155.619,214.299L155.619,214.299z"/>
	</g>
</g>
<g>
	<g>
		<path d="M174.788,210.549c2.04-5.211,6.671-16.941,1.75-21.718c-0.598-0.581-1.518-0.557-2.121,0
			c-4.113,3.797-3.905,13.005-4.627,18.164c-1.035,7.397-1.789,14.828-2.538,22.259c-0.193,1.919,2.808,1.906,3,0
			c0.607-6.028,1.207-12.059,1.979-18.068c0.43-3.344,0.901-6.683,1.458-10.008c0.491-2.928,0.547-8.1,2.848-10.225
			c-0.707,0-1.414,0-2.121,0c2.239,2.174,0.489,8.481-0.046,10.903c-0.599,2.711-1.464,5.313-2.475,7.896
			C171.191,211.55,174.091,212.33,174.788,210.549L174.788,210.549z"/>
	</g>
</g>
<g>
	<g>
		<path d="M168.253,218.483c3.31-1.891,6.62-3.782,9.93-5.672c1.676-0.958,0.167-3.551-1.514-2.59
			c-3.31,1.891-6.62,3.782-9.93,5.672C165.062,216.85,166.572,219.444,168.253,218.483L168.253,218.483z"/>
	</g>
</g>
<g>
	<g>
		<path d="M189.856,205.116c-6.529-2.714-18.291,5.821-13.468,12.953c1.956,2.892,5.837,3.541,8.902,2.249
			c4.637-1.955,6.378-6.948,7.433-11.462c-0.964-0.266-1.929-0.532-2.893-0.798c-0.646,3.856,1.545,7.531,5.666,7.979
			c5.418,0.589,8.817-4.108,9.907-8.808c0.32-1.381-1.453-2.628-2.507-1.459c-2.626,2.911-1.424,7.557,2.605,8.406
			c5.367,1.131,8.311-4.424,9.356-8.711c-0.982-0.133-1.964-0.266-2.946-0.399c0.032,2.941,0.766,6.74,4.437,6.929
			c4.427,0.228,5.908-4.425,6.403-7.881c0.271-1.888-2.619-2.704-2.893-0.798c-0.1,0.889-0.254,1.769-0.462,2.639
			c-3.348,1.689-4.843,1.393-4.485-0.889c-0.018-1.66-2.537-2.077-2.946-0.399c-0.238,1.177-0.6,2.316-1.084,3.419
			c-1.099,2.921-3.054,2.856-5.863-0.195c-0.836-0.486-1.671-0.973-2.507-1.459c-0.208,1.273-0.636,2.474-1.285,3.601
			c-2.307,3.823-5.141,3.431-8.502-1.178c0.313-1.866-2.446-2.71-2.893-0.798c-0.566,2.422-4.106,13.072-8.707,9.834
			c-0.745-1.699-1.49-3.398-2.235-5.097c0.754-1.116,1.63-2.121,2.628-3.016c2.185-1.95,4.672-2.964,7.542-1.771
			C190.839,208.75,191.616,205.848,189.856,205.116L189.856,205.116z"/>
	</g>
</g>
<g>
	<g>
		<path d="M228.187,213.681c0.861-3.983,3.437-7.076,7.162-8.709c-0.734-0.299-1.469-0.598-2.204-0.896
			c0.994,3.233,1.253,6.475,0.826,9.828c-0.243,1.91,2.759,1.892,3,0c0.459-3.603,0.133-7.155-0.933-10.625
			c-0.31-1.007-1.31-1.288-2.203-0.896c-4.367,1.915-7.534,5.848-8.54,10.501C224.888,214.765,227.779,215.57,228.187,213.681
			L228.187,213.681z"/>
	</g>
</g>
<g>
	<g>
		<path d="M249.549,185.627c0.379,7.156,0.693,14.291-0.314,21.414c0.836-0.221,1.671-0.441,2.507-0.662
			c-2.563-2.239-4.145-5.819-7.996-5.898c-2.684-0.055-5.256,1.544-6.405,3.947c-3.601,7.529,5.211,12.463,11.502,10.645
			c1.851-0.535,1.064-3.431-0.798-2.893c-1.89,0.737-3.777,0.665-5.662-0.219c-4.599-4.212-3.396-6.699,3.608-7.46
			c1.36,0.785,2.406,2.929,3.629,3.998c0.746,0.652,2.336,0.55,2.507-0.662c1.047-7.404,0.816-14.767,0.422-22.211
			C252.447,183.706,249.447,183.694,249.549,185.627L249.549,185.627z"/>
	</g>
</g>
<g>
	<g>
		<path d="M263.954,196.058c-6.916-5.22-12.924,7.318-10.893,12.855c1.194,3.255,4.602,4.224,7.555,2.555
			c3.339-1.888,4.973-5.835,4.518-9.541c-0.232-1.892-3.235-1.915-3,0c0.251,2.041-0.113,4.08-1.501,5.68
			c-1.752,2.021-4.638,2.318-4.998-0.957c-0.326-2.965,2.721-11.084,6.805-8.002C263.981,199.811,265.478,197.208,263.954,196.058
			L263.954,196.058z"/>
	</g>
</g>
</svg>
