<?xml version="1.0" encoding="utf-8"?>
<!-- Generator: Adobe Illustrator 20.0.0, SVG Export Plug-In . SVG Version: 6.00 Build 0)  -->
<svg version="1.1" id="Layer_1" xmlns="http://www.w3.org/2000/svg" xmlns:xlink="http://www.w3.org/1999/xlink" x="0px" y="0px"
	 viewBox="0 0 300 300" style="enable-background:new 0 0 300 300;" xml:space="preserve">
<style type="text/css">
 
		.name {
			stroke-dasharray:500;
    
			stroke-dashoffset:0;
			-webkit-animation: dash 6s linear forwards;
			-o-animation: dash 2s linear forwards;
			-moz-animation: dash 2s linear forwards;
			animation: dash 6s linear forwards;
		}
        #pepe:hover .st0{
    fill:grey;
            transition:100ms;
        }

@-webkit-keyframes dash{
	from{
		stroke-dashoffset:200;
	}
	to{
		stroke-dashoffset:0;
	}
}


</style>
	<g>
		<path id="pepe" class="name st0" d="M56.066,200.095c8.269-6.593,13.306-15.817,17.235-25.47c4.706-11.561,8.341-23.592,11.028-35.777
			c2.621-11.888,4.306-23.989,5.037-36.14c0.69-11.471,1.661-24.209-2.842-35.057c-0.473-1.139-2.025-1.563-2.742-0.358
			c-3.788,6.369-3.831,13.998-4.247,21.201c-0.518,8.963-0.665,17.946-0.44,26.921c0.403,16.058,0.564,34.245,7.133,49.203
			c2.169,4.938,5.679,10.147,11.138,11.737c6.492,1.89,12.417-2.363,17.271-6.148c10.986-8.567,20.055-19.532,26.607-31.816
			c7.564-14.182,11.669-29.946,11.962-46.012c-0.982,0.133-1.964,0.266-2.946,0.399c2.154,12.106,9.289,23.57,20.513,29.169
			c10.854,5.415,24.204,4.609,33.989-2.654c1.338-0.993,0.586-3.112-1.156-2.742c-14.568,3.099-28.39,10.308-42.047,16.075
			c-14.407,6.084-28.849,12.095-43.195,18.321c-26.93,11.688-54.289,24.127-76.992,43.077c-1.298,1.083,0.414,3.322,1.818,2.356
			c59.956-41.285,128.917-65.866,195.45-94.15c1.771-0.753,0.244-3.338-1.514-2.59c-66.532,28.284-135.494,52.865-195.45,94.15
			c0.606,0.785,1.212,1.571,1.818,2.356c22.478-18.762,49.727-31.039,76.385-42.608c13.463-5.843,27.013-11.487,40.533-17.197
			c14.302-6.039,28.74-13.652,43.993-16.897c-0.385-0.914-0.771-1.828-1.156-2.742c-9.33,6.925-22.097,7.641-32.254,1.971
			c-9.88-5.516-15.897-15.763-17.841-26.692c-0.304-1.707-2.916-1.241-2.946,0.399c-0.298,16.32-4.656,32.308-12.667,46.536
			c-3.989,7.085-8.825,13.681-14.429,19.575c-5.286,5.559-12.685,13.648-20.48,15.06c-10.211,1.851-14.521-10.867-16.504-18.616
			c-2.405-9.399-3.039-19.291-3.596-28.947c-0.554-9.603-0.681-19.23-0.382-28.845c0.282-9.052-0.532-20.339,4.224-28.335
			c-0.914-0.119-1.828-0.239-2.742-0.358c4.291,10.337,3.397,22.38,2.786,33.334c-0.68,12.2-2.35,24.335-4.981,36.268
			c-2.459,11.152-5.736,22.137-9.849,32.793c-3.95,10.236-8.903,20.162-17.643,27.131C52.436,199.177,54.571,201.288,56.066,200.095
			L56.066,200.095z"/>
	</g>

</svg>
